<?xml version="1.0" encoding="UTF-8"?>
<svg width="200" height="200" viewBox="0 0 200 200" fill="none" xmlns="http://www.w3.org/2000/svg">
  <!-- 书本基底 -->
  <g id="book-base">
    <!-- 书本封面 -->
    <rect x="40" y="120" width="120" height="60" rx="4" fill="#1E40AF" opacity="0.9"/>
    <!-- 书本页面层次 -->
    <rect x="44" y="116" width="112" height="4" rx="2" fill="#3B82F6" opacity="0.6"/>
    <rect x="48" y="112" width="104" height="4" rx="2" fill="#60A5FA" opacity="0.4"/>
    <!-- 书本装饰线条 -->
    <line x1="100" y1="120" x2="100" y2="180" stroke="#93C5FD" stroke-width="2" opacity="0.5"/>
  </g>

  <!-- 中心处理器 -->
  <g id="processor-core">
    <!-- 处理器外框 -->
    <rect x="70" y="60" width="60" height="60" rx="8" fill="white" stroke="#1E40AF" stroke-width="3"/>
    <!-- 处理器内部电路图案 -->
    <circle cx="100" cy="90" r="18" fill="#3B82F6" opacity="0.2"/>
    <circle cx="100" cy="90" r="12" fill="#1E40AF" opacity="0.3"/>
    <circle cx="100" cy="90" r="6" fill="#1E40AF"/>
    
    <!-- 处理器引脚 - 上 -->
    <rect x="85" y="54" width="3" height="6" fill="#3B82F6"/>
    <rect x="98" y="54" width="3" height="6" fill="#3B82F6"/>
    <rect x="111" y="54" width="3" height="6" fill="#3B82F6"/>
    
    <!-- 处理器引脚 - 下 -->
    <rect x="85" y="120" width="3" height="6" fill="#3B82F6"/>
    <rect x="98" y="120" width="3" height="6" fill="#3B82F6"/>
    <rect x="111" y="120" width="3" height="6" fill="#3B82F6"/>
    
    <!-- 处理器引脚 - 左 -->
    <rect x="64" y="75" width="6" height="3" fill="#3B82F6"/>
    <rect x="64" y="88" width="6" height="3" fill="#3B82F6"/>
    <rect x="64" y="101" width="6" height="3" fill="#3B82F6"/>
    
    <!-- 处理器引脚 - 右 -->
    <rect x="130" y="75" width="6" height="3" fill="#3B82F6"/>
    <rect x="130" y="88" width="6" height="3" fill="#3B82F6"/>
    <rect x="130" y="101" width="6" height="3" fill="#3B82F6"/>
  </g>

  <!-- 三个圆点代表多智能体协同 -->
  <g id="multi-agent-dots">
    <!-- 左侧智能体 -->
    <circle cx="40" cy="50" r="10" fill="#3B82F6"/>
    <circle cx="40" cy="50" r="6" fill="white" opacity="0.8"/>
    
    <!-- 顶部智能体 -->
    <circle cx="100" cy="30" r="10" fill="#3B82F6"/>
    <circle cx="100" cy="30" r="6" fill="white" opacity="0.8"/>
    
    <!-- 右侧智能体 -->
    <circle cx="160" cy="50" r="10" fill="#3B82F6"/>
    <circle cx="160" cy="50" r="6" fill="white" opacity="0.8"/>
    
    <!-- 连接线表示协同 -->
    <line x1="48" y1="55" x2="70" y2="75" stroke="#60A5FA" stroke-width="2" stroke-dasharray="4 4" opacity="0.6"/>
    <line x1="100" y1="40" x2="100" y2="60" stroke="#60A5FA" stroke-width="2" stroke-dasharray="4 4" opacity="0.6"/>
    <line x1="152" y1="55" x2="130" y2="75" stroke="#60A5FA" stroke-width="2" stroke-dasharray="4 4" opacity="0.6"/>
  </g>
</svg>